# xmcd
#
# Track frame offsets: 
#        150
#        13415
#        27821
#        43020
#        55454
#        72770
#        82937
#        103605
#        116825
#        138284
#        147743
#        165932
#        183431
#        201929
#        227705
#
# Disc length: 3347 seconds
#
# Revision: 0
# Processed by: cddbd v1.5.2PL0 Copyright (c) Steve Scherf et al.
# Submitted via: ExactAudioCopy v0.95b4
#
DISCID=d20d110f
DTITLE=Forrest McDonald and 3D Blues Band - What's It Gonna Take
DYEAR=2000
DGENRE=Blues
TTITLE0=Work Work
TTITLE1=Early In The Morning
TTITLE2=Times Getting Tougher
TTITLE3=Slippin' Out
TTITLE4=Southern Exposure
TTITLE5=Call My Baby
TTITLE6=Bad Day
TTITLE7=Two Bones And A Pick
TTITLE8=Mean Old World
TTITLE9=California Baby
TTITLE10=Roll On katy
TTITLE11=Red Sunglasses
TTITLE12=Skid Row Blues
TTITLE13=Alligator
TTITLE14=Rolling Down The River
EXTD=
EXTT0=
EXTT1=
EXTT2=
EXTT3=
EXTT4=
EXTT5=
EXTT6=
EXTT7=
EXTT8=
EXTT9=
EXTT10=
EXTT11=
EXTT12=
EXTT13=
EXTT14=
PLAYORDER=
